/* XPM */
static char *brow[] = {
/* columns rows colors chars-per-pixel */
"64 64 4 1 ",
"  c #170C12",
". c #967446",
"X c #C89A5C",
"o c #F8BD85",
/* pixels */
"oooooooooooooooo ooooooooooooooooooooooooooooooo ooooooooooooooo",
"XXXXXXXXXXXXXXXo .XXXXXXXXXXXXXXXXXXXXXXXXXXXXXo .XXXXXXXXXXXXXX",
"XXXXXXXXXXXXXXXo .XXXXXXXXXXXXXXXXXXXXXXXXXXXXXo .XXXXXXXXXXXXXX",
"XXXXXXXXXXXXXXXo .XXXXXXXXXXXXXXXXXXXXXXXXXXXXXo .XXXXXXXXXXXXXX",
"XXXXXXXXXXXXXXXo .XXXXXXXXXXXXXXXXXXXXXXXXXXXXXo .XXXXXXXXXXXXXX",
"XXXXXXXXXXXXXXXo .XXXXXXXXXXXXXXXXXXXXXXXXXXXXXo .XXXXXXXXXXXXXX",
"XXXXXXXXXXXXXXXo .XXXXXXXXXXXXXXXXXXXXXXXXXXXXXo .XXXXXXXXXXXXXX",
"XXXXXXXXXXXXXXXo .XXXXXXXXXXXXXXXXXXXXXXXXXXXXXo .XXXXXXXXXXXXXX",
"XXXXXXXXXXXXXXXo .XXXXXXXXXXXXXXXXXXXXXXXXXXXXXo .XXXXXXXXXXXXXX",
"XXXXXXXXXXXXXXXo .XXXXXXXXXXXXXXXXXXXXXXXXXXXXXo .XXXXXXXXXXXXXX",
"XXXXXXXXXXXXXXXo .XXXXXXXXXXXXXXXXXXXXXXXXXXXXXo .XXXXXXXXXXXXXX",
"XXXXXXXXXXXXXXXo .XXXXXXXXXXXXXXXXXXXXXXXXXXXXXo .XXXXXXXXXXXXXX",
"XXXXXXXXXXXXXXXo .XXXXXXXXXXXXXXXXXXXXXXXXXXXXXo .XXXXXXXXXXXXXX",
"XXXXXXXXXXXXXXXo .XXXXXXXXXXXXXXXXXXXXXXXXXXXXXo .XXXXXXXXXXXXXX",
"...............o ..............................o ...............",
"                                                                ",
" oooXooooooooooooooooooooooooooo ooooooooooooooooooooooooooooooo",
" .XXXXXXXXXXXXXXXXXXXXXXXXXXXXXo .XXXXXXXXXXXXXXXXXXXXXXXXXXXXXo",
" .XXXXXXXXXXXXXXXXXXXXXXXXXXXXXo .XXXXXXXXXXXXXXXXXXXXXXXXXXXXXo",
" .XXXXXXXXXXXXXXXXXXXXXXXXXXXXXo .XXXXXXXXXXXXXXXXXXXXXXXXXXXXXo",
" .XXXXXXXXXXXXXXXXXXXXXXXXXXXXXo .XXXXXXXXXXXXXXXXXXXXXXXXXXXXXo",
" .XXXXXXXXXXXXXXXXXXXXXXXXXXXXXo .XXXXXXXXXXXXXXXXXXXXXXXXXXXXXo",
" .XXXXXXXXXXXXXXXXXXXXXXXXXXXXXo .XXXXXXXXXXXXXXXXXXXXXXXXXXXXXo",
" .XXXXXXXXXXXXXXXXXXXXXXXXXXXXXo .XXXXXXXXXXXXXXXXXXXXXXXXXXXXXo",
" .XXXXXXXXXXXXXXXXXXXXXXXXXXXXXo .XXXXXXXXXXXXXXXXXXXXXXXXXXXXXo",
" .XXXXXXXXXXXXXXXXXXXXXXXXXXXXXo .XXXXXXXXXXXXXXXXXXXXXXXXXXXXXo",
" .XXXXXXXXXXXXXXXXXXXXXXXXXXXXXo .XXXXXXXXXXXXXXXXXXXXXXXXXXXXXo",
" .XXXXXXXXXXXXXXXXXXXXXXXXXXXXXo .XXXXXXXXXXXXXXXXXXXXXXXXXXXXXo",
" .XXXXXXXXXXXXXXXXXXXXXXXXXXXXXo .XXXXXXXXXXXXXXXXXXXXXXXXXXXXXo",
" .XXXXXXXXXXXXXXXXXXXXXXXXXXXXXo .XXXXXXXXXXXXXXXXXXXXXXXXXXXXXo",
" ..............................o ..............................o",
"                                                                ",
"oooooooooooooooo ooooooooooooooooooooooooooooooo ooooooooooooooo",
"XXXXXXXXXXXXXXXo .XXXXXXXXXXXXXXXXXXXXXXXXXXXXXo .XXXXXXXXXXXXXX",
"XXXXXXXXXXXXXXXo .XXXXXXXXXXXXXXXXXXXXXXXXXXXXXo .XXXXXXXXXXXXXX",
"XXXXXXXXXXXXXXXo .XXXXXXXXXXXXXXXXXXXXXXXXXXXXXo .XXXXXXXXXXXXXX",
"XXXXXXXXXXXXXXXo .XXXXXXXXXXXXXXXXXXXXXXXXXXXXXo .XXXXXXXXXXXXXX",
"XXXXXXXXXXXXXXXo .XXXXXXXXXXXXXXXXXXXXXXXXXXXXXo .XXXXXXXXXXXXXX",
"XXXXXXXXXXXXXXXo .XXXXXXXXXXXXXXXXXXXXXXXXXXXXXo .XXXXXXXXXXXXXX",
"XXXXXXXXXXXXXXXo .XXXXXXXXXXXXXXXXXXXXXXXXXXXXXo .XXXXXXXXXXXXXX",
"XXXXXXXXXXXXXXXo .XXXXXXXXXXXXXXXXXXXXXXXXXXXXXo .XXXXXXXXXXXXXX",
"XXXXXXXXXXXXXXXo .XXXXXXXXXXXXXXXXXXXXXXXXXXXXXo .XXXXXXXXXXXXXX",
"XXXXXXXXXXXXXXXo .XXXXXXXXXXXXXXXXXXXXXXXXXXXXXo .XXXXXXXXXXXXXX",
"XXXXXXXXXXXXXXXo .XXXXXXXXXXXXXXXXXXXXXXXXXXXXXo .XXXXXXXXXXXXXX",
"XXXXXXXXXXXXXXXo .XXXXXXXXXXXXXXXXXXXXXXXXXXXXXo .XXXXXXXXXXXXXX",
"XXXXXXXXXXXXXXXo .XXXXXXXXXXXXXXXXXXXXXXXXXXXXXo .XXXXXXXXXXXXXX",
"...............o ..............................o ...............",
"                                                                ",
" ooooooooooooooooooooooooooooooo ooooooooooooooooooooooooooooooo",
" .XXXXXXXXXXXXXXXXXXXXXXXXXXXXXo .XXXXXXXXXXXXXXXXXXXXXXXXXXXXXo",
" .XXXXXXXXXXXXXXXXXXXXXXXXXXXXXo .XXXXXXXXXXXXXXXXXXXXXXXXXXXXXo",
" .XXXXXXXXXXXXXXXXXXXXXXXXXXXXXo .XXXXXXXXXXXXXXXXXXXXXXXXXXXXXo",
" .XXXXXXXXXXXXXXXXXXXXXXXXXXXXXo .XXXXXXXXXXXXXXXXXXXXXXXXXXXXXo",
" .XXXXXXXXXXXXXXXXXXXXXXXXXXXXXo .XXXXXXXXXXXXXXXXXXXXXXXXXXXXXo",
" .XXXXXXXXXXXXXXXXXXXXXXXXXXXXXo .XXXXXXXXXXXXXXXXXXXXXXXXXXXXXo",
" .XXXXXXXXXXXXXXXXXXXXXXXXXXXXXo .XXXXXXXXXXXXXXXXXXXXXXXXXXXXXo",
" .XXXXXXXXXXXXXXXXXXXXXXXXXXXXXo .XXXXXXXXXXXXXXXXXXXXXXXXXXXXXo",
" .XXXXXXXXXXXXXXXXXXXXXXXXXXXXXo .XXXXXXXXXXXXXXXXXXXXXXXXXXXXXo",
" .XXXXXXXXXXXXXXXXXXXXXXXXXXXXXo .XXXXXXXXXXXXXXXXXXXXXXXXXXXXXo",
" .XXXXXXXXXXXXXXXXXXXXXXXXXXXXXo .XXXXXXXXXXXXXXXXXXXXXXXXXXXXXo",
" .XXXXXXXXXXXXXXXXXXXXXXXXXXXXXo .XXXXXXXXXXXXXXXXXXXXXXXXXXXXXo",
" .XXXXXXXXXXXXXXXXXXXXXXXXXXXXXo .XXXXXXXXXXXXXXXXXXXXXXXXXXXXXo",
" ..............................o ..............................o",
"                                                                "
};
