/* XPM */
static char *fotograma_000001[] = {
/* columns rows colors chars-per-pixel */
"64 64 5 1 ",
"  c #2D2D2D",
". c #676767",
"X c #858585",
"o c #A1A1A1",
"O c #D0D0D0",
/* pixels */
"OOOOOOOOOOOOOOOOOOOOOOOOOOOOOoX oOOOOOOOOOOOOOOOOOOOOOOOOOOOo   ",
"OoooooOooooooooooooooooooooO.o..OOoooooooooooooooooooooooooo  ..",
"ooo.XXXX.XXX.X.XXXXX.XXX.X.XX. .OooXXX.XX.X.XXXoooXooooX.XX   .X",
"oXXX.XXXXXX.XXXXX.XXXX.XXXXXX  oOo.XXX.XXXXX.XXXXX.X.XXXXXX.  .X",
"o.XXXXo.XXXXXX.XXXXX.XXXXXXX.. XOoX.XXXXXXXXXX.XXXX.XX.XXX..  XX",
"oXX.X.XXXX.XXXXXXXX...XXXXXX.. OOoXX.XXX.XXoXXXXX.XXXX.XXX..  XX",
"o.XXXX.X.XXXXXXoX.X.XX.X.XXXX. OOoXX.X.oXXXXX.XXXX.XXXX.X.Xo  XX",
"oXXXXXXXX.X.XXX.XXXXXXXXXXX.X. OOoXXXXXXXX.XXXX.XXXX.XXXXX..  XX",
"oXXXXXX..XXXXXXXXXX.XXXXXXXX.. OOo.XXX.XXXoX.XXXXXX.oXXXXXX.  .o",
"o.XX.XXXXXX.X.XX.XXXXXXXX.XX.. OOoXXXXXX.XXXXXXX.XXXXX.X.XX   Xo",
"oX.XXXXXXXXX.X.XXXXXXXX.XX.XX. OOo.X.XXXXXX.XXXXXXoXX.XXXX..  Xo",
"oXXoXXXXX.XXXXXXXX...XXXX.XX.. OOoXXXXXX.XXXX.XXXXXXXX.XXX..  .X",
"oXXXXXX.XXXXXo.X.XX..XXXXX.X.. OOoXXXXX.XXXXX.XoXXXX..XXXXX.  XX",
".XX..XXX.XX.XXXXXXXX.XX.XXXX.. OOoX.X.XXXXXXXX.X.X.XXXXX...   Xo",
"XXXXXXXXXX.XXXXXXXXXXXXX.XXXX. OOo.XoXXXXXX.X.XXXXXXX.X.XXX.  Xo",
". .. .. ...XXXX.X.XXX.XXXX.. . .OoXXXXX.X.XXXXXX. ..XXXXXX .  ..",
"           ..... .. ... .. ..   XX .. .. .... ... ..... ..      ",
"oooooooo..                      .                           ..OO",
"ooooooooooooOX  ooXOOOOOOOOOOOOOOOOOOOOOOOOOOXo   .OOOOOOOOOOOOO",
".X.XXX.XX.X.  oOOOOOOoooooooXooXooooooooooooo.  .OOOOOOO.XX.XX..",
"XXXXX.XXXX... OXoooXXXXXXXX.XX.X.X.XXXXXXXXX.X..OOoooX.XXX.XX.XX",
"X.XXX.X.XXX.. Ooo.XXX.XXX.XX.XXXXXXXX.X..X.XXX. OoXXX.XXXXXXXXXX",
"XX.XXXXX.XX   OoXX.XXX.XXXo.XXXXXXXXoXX.X.XXXX  Oo..XX.X.XXXXXX.",
"X.XXX.XXXXX.. Oo.XXXX..XXXXXXXX.XXX.XXX.XXXXX.. OoXXXXXoXXX .XXX",
"XX.XXX.X.XX.. OoXXX.XXX.XXX..XXX.XXXXXXX.XXX.X. OoXXXX.XXXX.XXX.",
"XXXXXXXX.X..  OXXXXX.XXXXXXXXXXXXX.XX.XXXXXXXX. OoXXXXXXX.XXXXXX",
".XXXXoXX.X... OoXXXXXXXXXXXXXX.XXXXXoXX.XXoXXX..Oo.X.XXXXXXXXXXX",
".XX..XX.XX..  OoXX.XXX.XX.XXoXXXX.XXXXXXXX.XX.. OoXXXXX.Xo.XXXX.",
"XXXXX...XXX.  OoXXXo.XXXXXX.XXXXX.XX.XXXXXXXXX. Oo.XXXXX.XXXXXXX",
".XX.XX.XXX..  OoX.XXXX.XX.XXXXX..XX.XX.XXX.XXX  OoX.XX..XXXX.X.X",
"X.X.X.......  oXX...XXX.X.XXXXX.X.XXXXXXX.XX... OoXXX.XX.XX.X.oX",
"...........   X...... ..... . .... .. ... . ... .X...X.XX.XXXXXX",
".. .. ...                                        X.  ... ... . .",
"         XOOOOOOOOOOooXX.    .XOOOOOOOOOOOOOOOOXX   .. . . ... .",
"OOOOOOOOOOOOOOOOOOOOOOOOOO. .OOOooXoooooOOOOOOOOOOOOOOOOOOX  XOO",
"oXooooooooooooooooooooooo...OOoooooooooooooooooooooooooooo. XOOo",
"XX.XXX.X.X.XoXXXXXXXXXX.X.. Oo.XX.XX.X.XXXXXXX.oooooo..XXX. .OoX",
"..XXXXXXXXXXXX.X.X.X.XXXXX. OoXXXooooXXXXoo.XXXX.XXXXXXX.X  OOoX",
"XXXX.XXXXXXX.XXXX.XX.XXXXX. OoXXX.XXXXXXX.X..XXXXXXXX.XXoX. OooX",
"XX.XXXX.XXX.XXX.XXXX.XX.XX  OoXXXXX.XXX.XXXXXXXXXXX.XXXXXX. Ooo.",
"X.XXXXXXX.XXXXXXXXXXXXXX.X. OoX.X.XXX..XXX.XXXX.XX.XXX.XX.  OooX",
"XX.XX.XX.X.X.XXX.XX.X.XXXX. OXooXXXXXXX.XXXXX.XX.X.XXXXoXX. OooX",
"X.XXoXX.XXXXXXXXXXX.XXo.XX. OooXXXX.XXXXX...XX.XXX.X.XXXX.. Ooo.",
"XXXXXXXXXX.XXX.XXX.XXXoXX.. Oo.XXXXXX.XXXXXXXXXXXXXXXXX.XX. OooX",
"XXXX.X..XXXXX.XXXXX..XXXXX. OoXX.XXXX..XXXXX.oXXXXXX.XXX.o  Ooo.",
"X.XXXXXXXX.XXXXXXoXXXX.XX.  OoX.XXXXXXoXXXXXXXX.X.XXX.XXXX. OooX",
"XX...XXXX.XXXXX..XXXoXXXX.. OoXXXXX.XX.X.XXXXXXX.X.X.XX.XX. OoXX",
" ..... .. . ... .. .. .. .. .oX..XXXXXXXXXX.X.XXXXXXXXX...  o...",
"... . ... .. .. .. .... .    ..... .. ... ... . ... .. ..     . ",
"                                                                ",
"OOOOOOOX. .XOOOOOOOOOOOOOOoOOOOOOOOOOOOOOOOOX   OOOOOOOOOOOOOOOO",
"oooooooo. .OooooooooXooooooXooooXoooooooooo..  OoooooooooooXoooo",
"X..X.XXX. OooXoXoXXXX.XX.XXXooooXXXXXXXX.XX.. OoooXXXX.XXXXXXXXX",
"XX.XXXX.. OoX.XXX.X.XXXXXXX..XXXX.XX...XXXX . Ooo.X.X.XX.XX.X.XX",
"X.XXX.XX  Oo.X.XX.XXXX.XXXXXXXXX.X.XXXXXXXX.  OooXXXXX.XooXXXXX.",
"XXXXXXXX. OoXXXXX.XX.XXX.XoXXX.XXXXXXX.XX.... OooX..XXXXXXXX.XXX",
"X.XXXXXX. Oo.oX.XXXX.XXXX.XXXX.XXXXX.XXXXXX.. OooX.X.XXXX.XXXXXX",
"XXXXXX.X. OoXXXX.XXXXXX.XXXXXX.XXXXXXX..XX..  OooXXXXXX.XX...X.X",
"XXX.X.XX  Oo.XXXXXXXXXXXXXX.X.X..XX.XXXXX.X . OooXXXXXXXXX.XX.XX",
"XXXXXX.X. OoX..XXX.Xo.XXXXXXXXXXXXXoXXX.XXX.. OXo.X.XXXXXXXXXXXX",
"oXXXXXX.. OoXX.XXXXXoX.X.XXXXXXXXXX..XXX.X... OooXX..X.X.XX.X.XX",
".X.XX.X.  OoXXXXXX.XXXX.XXX.X .X.XX.XXX....   OXoXXXX.X.XXX.XXXX",
" ... .  .  o. ... . .... ..... ..... ..... .  o.. .... ...... ..",
"                                              .                 "
};
