/* XPM */
static char *fotograma_000001[] = {
/* columns rows colors chars-per-pixel */
"64 64 14 1 ",
"  c #131313",
". c #2F2F2F",
"X c gray19",
"o c gray33",
"O c #555555",
"+ c #565656",
"@ c gray50",
"# c #808080",
"$ c gray51",
"% c gray62",
"& c gray63",
"* c #A2A2A2",
"= c gray81",
"- c #D0D0D0",
/* pixels */
"----------=------------------%# =---------=-----------=-----%  O",
"-%%%%%-%%%%%%%%%%*%%%*%%%*%-#%OO--%%%%*%%*%%%%%%%%%%%%%%%%%%. O@",
"%%%#@#######@################O.O-%%###@########*%%%%%%*####O..@#",
"%##@######################@##O.%-%###############@####@####O..##",
"%#@###%#############O###@#@##O.%=%#########@##############@OX.@#",
"%############################O.==*#########*##########O####O..#@",
"%##############%#############O.--%####@*#################@#*.X##",
"%####@###O###################O.--%###@#@##################@O..##",
"*########@###################O.--%@@######*@########*######OX.#%",
"%########################@###OX--%##################@######OX.#%",
"*@#######@##@################O.-=%############@###*@#@####OOXX#%",
"%@#*######################@##OX=-%#############@###########O.X##",
"%############%#####OO########O.--%####@########*####O######O..@#",
"@###########################@O.--%#@######################OO..#%",
"#############################O.=-%##*#####################@O..#%",
"OOOOOOOOOOO################OOO.@=%#@@###########OOOO#####@OO.XOO",
"XX...X.....OOOOOOOOOOOOOOOOOO...##OOOOOOOOOOOOOOOOOOOOOOOO.. ...",
"%%%%%%%%@O.X................X   O.....X.......X.XX......X..XOO--",
"*%%%*%%%%%*%=@..%%#--=--==-------=--------=-=#%..OO----------=--",
"@@##@####@@#O.%=-----%%%*%%%%%%%%%%%%%%%%%%*%#O.O=------###@####",
"@###@######OO.-%%%%#@###@##########@##########OO--*%%@##########",
"#####O#@###OOX-%%####@##################@#####OX-%#####@########",
"@#########@OO.-%########@#*#########*@####@###O.=%####@#########",
"#########@@OO.=%######O##@@############O######O.-%#####%###OO###",
"########O##OO.-%##############################OX-%###########@##",
"#####@#####O.X-%##############################OO-%############@#",
"O####*#####OO.-%############@#######*#####*###OO-%#######@######",
"###########O..-%############*#############@###OX=*#######*###@#@",
"#@#####O###OX -%###*@###################@##@@#O.-%##############",
"######O####OX -%################O########@####OX-%#@###O########",
"###@######OOX -%######@#####################@OOX-%######O#####%#",
"OOOOOOOOOOOOX %OOOOOOOOOOOOOOOOOOOOOOOOOOOOOOOOX#%OOO###########",
"OOOOOOOOO....XXX.............XX.X...X.X.X........#OOOOOOOOOOOOOO",
"..XX.X.X.#----------%%##OO   ##-=--------------#@..XOOOOOOOOOOOO",
"--=---------=-----===---=-@.#-=-%%%%%%%%=-==---=-=--=-----#..#--",
"%%%%%%%%%%%%%*%*%%%%*%%%%#OO--%%%%%%%%%%%%%*%%%%%%%%%%*%%%OX@--%",
"############*#######@####@OX-%#################%%%%%%#####O.#-%#",
"#O########################O.=%###%%%%####%%###############OX=-%@",
"#########################@O.-*##########################%#O.-%%#",
"####################O####@O.-%############################OX-%%#",
"#########O################O.-%########O###########O######@O.-%%#",
"#######################@##OX-%%%#######################%##OX-%%#",
"####*##############O##*@##O.-%%###########O##############@OX-%%#",
"####@##############@#@*@##O.-%@######@#######@####@#######OX-%%#",
"######O#####@###@@########O.-%########@######*@##########%O.-%%#",
"#################*########OX-%#####@##*######@#######O####O.-%%#",
"##################@#*####OO.-%@###@#######################OX-%@#",
"OOOOOOOOOOOOOOOOOOOOOOOOOOO.#%###############@##########OO.X%@OO",
"OOOOOOOOOOOOOOOOOOOOOOOOO.. O@OOOOOOOOOOOOOOOOOOOOOOOOOOO....OOO",
"XX.X......XX.X...X.X......   ....X.X..X.........XX...X.....  ...",
"-------#O O#--==----------===-==-=------=-=-@. .-----------=-===",
"%%%%%%%%#X#-%%%%%%%%%%%%%%%%%%%%%%%%%%%*%%%@O..=%%%%%%%%%%%%%%%%",
"#@######OX=*%#%#%###########%%%%###########OO.-%%%##########@###",
"##O###@#OX-%###@###############@#####O###@#OO.-%%##########@#@##",
"########OX-%@####O#########################OO.-%%#######%%######",
"########OX-%##############%###@############OOX-%%##O######@#####",
"########OX-%#%#@##########@###O############OO.-%%########@######",
"######@#OX-%@#@###############@#@####@#O@##OOX-%%######@###O####",
"########OX-%##@################@##########@OO.-%%###############",
"########OX-%##O#####%###########@##%#####@@OO.-%%###############",
"*#####@#OX-%@#######%#######@@#####@######OOO.-%*@#@##O#########",
"@###@@#OXX-%################@O@#@##@#####OOOO.-%%@##############",
"OOOOOOO.O O%OOOOOOOOOOOOOOOOooOOOOOOOOOOOOOO..%OOOOOOOOOOOOOOOOO",
"XXXX....   ..X.....X.X....XX...........X..... O........XXX......"
};
